<svg width="32" height="32" viewBox="0 0 32 32" fill="none" xmlns="http://www.w3.org/2000/svg">
<path d="M14.6667 5.33325H5.33341C4.62617 5.33325 3.94789 5.6142 3.4478 6.1143C2.9477 6.6144 2.66675 7.29267 2.66675 7.99992V26.6666C2.66675 27.3738 2.9477 28.0521 3.4478 28.5522C3.94789 29.0523 4.62617 29.3333 5.33341 29.3333H24.0001C24.7073 29.3333 25.3856 29.0523 25.8857 28.5522C26.3858 28.0521 26.6667 27.3738 26.6667 26.6666V17.3333" stroke="#1B262C" stroke-width="2" stroke-linecap="round" stroke-linejoin="round"/>
<path d="M24.6667 3.33331C25.1972 2.80288 25.9166 2.50488 26.6667 2.50488C27.4169 2.50488 28.1363 2.80288 28.6667 3.33331C29.1972 3.86374 29.4952 4.58316 29.4952 5.33331C29.4952 6.08346 29.1972 6.80288 28.6667 7.33331L16.0001 20L10.6667 21.3333L12.0001 16L24.6667 3.33331Z" stroke="#1B262C" stroke-width="2" stroke-linecap="round" stroke-linejoin="round"/>
</svg>
